REM DIRINDEX 1\2,1\3\7,1\3\8,1\4\9,1\4\10,1\4\11,1\5\12,1\5\13,1\5\14,1\6\15,1\6\16,1\6\17
REM DIRNAME "folder01","folder02","folder03","folder04","folder05","folder06","folder07","folder08","folder09","folder10","folder11","folder12","folder13","folder14","folder15","folder16","folder17"
TITLE ""
FILE "2Q_t_0070-0087.mp3" MP3
  TRACK 01 AUDIO
    TITLE "7:cjc174_1869"
    INDEX 01 00:00:00
  TRACK 02 AUDIO
    TITLE "0:"
    INDEX 01 00:01:10
  TRACK 03 AUDIO
    TITLE "8:cjc174_1870"
    INDEX 01 00:01:55
  TRACK 04 AUDIO
    TITLE "0:"
    INDEX 01 00:05:31
  TRACK 05 AUDIO
    TITLE "7:cjc174_1871"
    INDEX 01 00:06:01
  TRACK 06 AUDIO
    TITLE "0:"
    INDEX 01 00:07:03
  TRACK 07 AUDIO
    TITLE "8:cjc174_1872"
    INDEX 01 00:07:48
  TRACK 08 AUDIO
    TITLE "0:"
    INDEX 01 00:10:36
  TRACK 09 AUDIO
    TITLE "7:cjc174_1873"
    INDEX 01 00:11:04
  TRACK 10 AUDIO
    TITLE "0:"
    INDEX 01 00:12:12
  TRACK 11 AUDIO
    TITLE "8:cjc174_1874"
    INDEX 01 00:12:66
  TRACK 12 AUDIO
    TITLE "0:"
    INDEX 01 00:15:12
  TRACK 13 AUDIO
    TITLE "7:cjc174_1875"
    INDEX 01 00:15:57
  TRACK 14 AUDIO
    TITLE "0:"
    INDEX 01 00:17:01
  TRACK 15 AUDIO
    TITLE "8:cjc174_1876"
    INDEX 01 00:17:46
  TRACK 16 AUDIO
    TITLE "0:"
    INDEX 01 00:20:68
  TRACK 17 AUDIO
    TITLE "7:cjc174_1877"
    INDEX 01 00:21:38
  TRACK 18 AUDIO
    TITLE "0:"
    INDEX 01 00:22:69
  TRACK 19 AUDIO
    TITLE "8:cjc174_1878"
    INDEX 01 00:23:39
  TRACK 20 AUDIO
    TITLE "0:"
    INDEX 01 00:24:56
  TRACK 21 AUDIO
    TITLE "7:cjc174_1879"
    INDEX 01 00:25:26
  TRACK 22 AUDIO
    TITLE "0:"
    INDEX 01 00:26:27
  TRACK 23 AUDIO
    TITLE "8:cjc174_1880"
    INDEX 01 00:27:11
  TRACK 24 AUDIO
    TITLE "0:"
    INDEX 01 00:29:04
  TRACK 25 AUDIO
    TITLE "7:cjc174_1881"
    INDEX 01 00:29:49
  TRACK 26 AUDIO
    TITLE "0:"
    INDEX 01 00:30:66
  TRACK 27 AUDIO
    TITLE "8:cjc174_1882"
    INDEX 01 00:31:42
  TRACK 28 AUDIO
    TITLE "0:"
    INDEX 01 00:32:46
  TRACK 29 AUDIO
    TITLE "7:cjc174_1883"
    INDEX 01 00:33:16
  TRACK 30 AUDIO
    TITLE "0:"
    INDEX 01 00:34:29
  TRACK 31 AUDIO
    TITLE "8:cjc174_1884"
    INDEX 01 00:35:05
  TRACK 32 AUDIO
    TITLE "0:"
    INDEX 01 00:37:25
  TRACK 33 AUDIO
    TITLE "7:cjc174_1885"
    INDEX 01 00:37:72
  TRACK 34 AUDIO
    TITLE "0:"
    INDEX 01 00:39:06
  TRACK 35 AUDIO
    TITLE "8:cjc174_1886"
    INDEX 01 00:39:57
  TRACK 36 AUDIO
    TITLE "0:"
    INDEX 01 00:42:60
  TRACK 37 AUDIO
    TITLE "7:cjc174_1887"
    INDEX 01 00:43:30
  TRACK 38 AUDIO
    TITLE "0:"
    INDEX 01 00:44:39
  TRACK 39 AUDIO
    TITLE "8:cjc174_1888"
    INDEX 01 00:45:09
  TRACK 40 AUDIO
    TITLE "0:"
    INDEX 01 00:46:12
  TRACK 41 AUDIO
    TITLE "7:cjc174_1889"
    INDEX 01 00:46:57
  TRACK 42 AUDIO
    TITLE "0:"
    INDEX 01 00:47:73
  TRACK 43 AUDIO
    TITLE "8:cjc174_1890"
    INDEX 01 00:48:49
  TRACK 44 AUDIO
    TITLE "0:"
    INDEX 01 00:52:60
  TRACK 45 AUDIO
    TITLE "7:cjc174_1891"
    INDEX 01 00:53:30
  TRACK 46 AUDIO
    TITLE "0:"
    INDEX 01 00:54:41
  TRACK 47 AUDIO
    TITLE "8:cjc174_1892"
    INDEX 01 00:55:17
  TRACK 48 AUDIO
    TITLE "0:"
    INDEX 01 00:58:14
  TRACK 49 AUDIO
    TITLE "7:cjc174_1893"
    INDEX 01 00:58:59
  TRACK 50 AUDIO
    TITLE "0:"
    INDEX 01 01:00:12
  TRACK 51 AUDIO
    TITLE "8:cjc174_1894"
    INDEX 01 01:00:60
  TRACK 52 AUDIO
    TITLE "0:"
    INDEX 01 01:02:62
  TRACK 53 AUDIO
    TITLE "7:cjc174_1895"
    INDEX 01 01:03:32
  TRACK 54 AUDIO
    TITLE "0:"
    INDEX 01 01:04:34
  TRACK 55 AUDIO
    TITLE "8:cjc174_1896"
    INDEX 01 01:05:10
  TRACK 56 AUDIO
    TITLE "0:"
    INDEX 01 01:08:28
  TRACK 57 AUDIO
    TITLE "7:cjc174_1897"
    INDEX 01 01:08:73
  TRACK 58 AUDIO
    TITLE "0:"
    INDEX 01 01:10:36
  TRACK 59 AUDIO
    TITLE "8:cjc174_1898"
    INDEX 01 01:11:08
  TRACK 60 AUDIO
    TITLE "0:"
    INDEX 01 01:13:58
  TRACK 61 AUDIO
    TITLE "7:cjc174_1899"
    INDEX 01 01:14:26
  TRACK 62 AUDIO
    TITLE "0:"
    INDEX 01 01:15:53
  TRACK 63 AUDIO
    TITLE "8:cjc174_1900"
    INDEX 01 01:16:29
  TRACK 64 AUDIO
    TITLE "0:"
    INDEX 01 01:19:33
  TRACK 65 AUDIO
    TITLE "7:cjc174_1901"
    INDEX 01 01:20:03
  TRACK 66 AUDIO
    TITLE "0:"
    INDEX 01 01:21:24
  TRACK 67 AUDIO
    TITLE "8:cjc174_1902"
    INDEX 01 01:21:71
  TRACK 68 AUDIO
    TITLE "0:"
    INDEX 01 01:23:08
  TRACK 69 AUDIO
    TITLE "7:cjc174_1903"
    INDEX 01 01:23:53
  TRACK 70 AUDIO
    TITLE "0:"
    INDEX 01 01:24:68
  TRACK 71 AUDIO
    TITLE "8:cjc174_1904"
    INDEX 01 01:25:44
  TRACK 72 AUDIO
    TITLE "0:"
    INDEX 01 01:28:73
